<svg xmlns="http://www.w3.org/2000/svg" viewBox="0 0 256 256" role="img" aria-label="Glimpse logo">
  <defs>
    <linearGradient id="tile" x1="44" y1="28" x2="218" y2="232" gradientUnits="userSpaceOnUse">
      <stop offset="0" stop-color="#4F46E5"/>
      <stop offset="0.48" stop-color="#2563EB"/>
      <stop offset="1" stop-color="#0891B2"/>
    </linearGradient>
    <linearGradient id="card" x1="78" y1="72" x2="176" y2="178" gradientUnits="userSpaceOnUse">
      <stop offset="0" stop-color="#F8FAFC"/>
      <stop offset="1" stop-color="#DFF7EF"/>
    </linearGradient>
    <linearGradient id="glint" x1="82" y1="60" x2="191" y2="194" gradientUnits="userSpaceOnUse">
      <stop offset="0" stop-color="#A7F3D0"/>
      <stop offset="1" stop-color="#22D3EE"/>
    </linearGradient>
    <filter id="shadow" x="-20%" y="-20%" width="140%" height="140%">
      <feDropShadow dx="0" dy="12" stdDeviation="12" flood-color="#0F172A" flood-opacity="0.24"/>
    </filter>
  </defs>

  <rect width="256" height="256" rx="56" fill="url(#tile)"/>
  <path d="M52 59C70 39 92 31 121 29c54-3 94 25 108 69 6 18 6 38 1 58-2 9-14 10-19 2-7-11-15-21-26-29-14-10-31-16-52-16-28 0-53 9-74 26-9 7-22 0-19-11 5-25 7-50 12-69Z" fill="#FFFFFF" opacity="0.12"/>

  <g filter="url(#shadow)">
    <rect x="67" y="67" width="122" height="122" rx="26" fill="#0F172A" opacity="0.18"/>
    <rect x="77" y="59" width="122" height="122" rx="26" fill="url(#card)"/>
    <rect x="91" y="75" width="94" height="70" rx="12" fill="#FFFFFF" opacity="0.72"/>
    <rect x="99" y="84" width="49" height="8" rx="4" fill="#94A3B8" opacity="0.45"/>
    <rect x="99" y="100" width="69" height="8" rx="4" fill="#94A3B8" opacity="0.35"/>
    <rect x="99" y="116" width="43" height="8" rx="4" fill="#94A3B8" opacity="0.32"/>
  </g>

  <circle cx="130" cy="137" r="43" fill="#0F172A" opacity="0.12"/>
  <circle cx="130" cy="134" r="37" fill="#FFFFFF" opacity="0.93"/>
  <path d="M130 99a35 35 0 0 1 33 47h-24v-16h41c1 4 2 8 2 12 0 29-23 52-52 52s-52-23-52-52 23-52 52-52c15 0 29 6 39 17l-15 14a34 34 0 0 0-24-22Z" fill="#1E293B" opacity="0.88"/>
  <circle cx="130" cy="137" r="17" fill="url(#glint)"/>
  <circle cx="124" cy="130" r="6" fill="#FFFFFF" opacity="0.88"/>
  <path d="M163 162l24 24" stroke="#A7F3D0" stroke-width="12" stroke-linecap="round"/>
</svg>
